<svg viewBox="0 0 20 20" xmlns="http://www.w3.org/2000/svg" class="dashicon" role="img" aria-hidden="true" focusable="false">
	<path d="M 12 2 L 16 6 L 16 18 L 4 18 L 4 2 Z M 12 6 L 15 6 L 12 3 Z M 6.093 8.494 L 6.093 15.083 C 6.093 15.376 6.331 15.614 6.624 15.614 L 13.213 15.614 C 13.506 15.614 13.744 15.376 13.744 15.083 L 13.744 8.494 C 13.744 8.201 13.506 7.963 13.213 7.963 L 6.624 7.963 C 6.331 7.963 6.093 8.201 6.093 8.494 Z M 6.943 14.764 L 6.943 8.813 L 12.894 8.813 L 12.894 14.764 Z M 9.919 10.088 C 9.919 9.621 9.536 9.238 9.068 9.238 C 8.601 9.238 8.218 9.621 8.218 10.088 C 8.218 10.556 8.601 10.938 9.068 10.938 C 9.536 10.938 9.919 10.556 9.919 10.088 Z M 9.919 11.363 C 9.068 11.363 8.643 12.639 8.643 12.639 C 8.643 12.639 8.218 10.938 7.368 10.938 L 7.368 13.914 C 7.368 14.148 7.559 14.339 7.793 14.339 L 12.044 14.339 C 12.278 14.339 12.469 14.148 12.469 13.914 L 12.469 9.663 C 11.194 9.663 11.194 12.214 11.194 12.214 C 11.194 12.214 10.769 11.363 9.919 11.363 Z" style="fill-rule: nonzero;"></path>
</svg>
